# xmcd
#
# Track frame offsets:
#   150
#   19139
#   42317
#   62474
#   79982
#   95147
#   119716
#   140482
#   160061
#   181485
#   197398
#   216990
#   236804
#   256894
#
# Disc length: 3627 seconds
#
# Revision: 0
# Processed by: cddbd v1.5PL3 Copyright (c) Steve Scherf et al.
# Submitted via: uFREEDB ActiveX Control 1.5
#
DISCID=ca0e290e
DTITLE=Chitãozinho and Xororó   - Versão Sertaneja
DYEAR=2004
DGENRE=Country
TTITLE0=Noite Sem Dono
TTITLE1=Quando Ama
TTITLE2=Deixaria Tudo
TTITLE3=Eu Só Penso em Você
TTITLE4=Poeira no Vento
TTITLE5=Te Amo Cada Vez Mais
TTITLE6=Quando um Grande Amor se Faz
TTITLE7=Eu Juro
TTITLE8=João Paulo and Daniel 
TTITLE9=Pra Sempre em Mim
TTITLE10=Eu Sou Desejo, Você é Paixão
TTITLE11=A Mulher em Mim
TTITLE12=Na Hora de Amar
TTITLE13=Pura Emoção
EXTD=
EXTT0=
EXTT1=
EXTT2=
EXTT3=
EXTT4=
EXTT5=
EXTT6=
EXTT7=
EXTT8=
EXTT9=
EXTT10=
EXTT11=
EXTT12=
EXTT13=
PLAYORDER=
